<svg xmlns="http://www.w3.org/2000/svg" viewBox="0 0 18 18" shape-rendering="crispEdges">
  <rect width="18" height="18" fill="#fff"/>
  <defs>
    <style>
      .d{fill:#2F356B}
      .e{fill:#3C4174}
      .b{fill:#5A7DCC}
      .g{fill:#D8E9DA}
    </style>
  </defs>
  <!-- Row 0 -->
  <rect class="e" x="4" y="3" width="2" height="1"/>
  <rect class="e" x="12" y="3" width="2" height="1"/>
  <!-- Row 1 -->
  <rect class="e" x="3" y="4" width="1" height="1"/>
  <rect class="b" x="4" y="4" width="2" height="1"/>
  <rect class="e" x="6" y="4" width="1" height="1"/>
  <rect class="e" x="11" y="4" width="1" height="1"/>
  <rect class="b" x="12" y="4" width="2" height="1"/>
  <rect class="e" x="14" y="4" width="1" height="1"/>
  <!-- Row 2 -->
  <rect class="e" x="2" y="5" width="1" height="1"/>
  <rect class="d" x="3" y="5" width="1" height="1"/>
  <rect class="g" x="4" y="5" width="2" height="1"/>
  <rect class="e" x="6" y="5" width="1" height="1"/>
  <rect class="e" x="11" y="5" width="1" height="1"/>
  <rect class="g" x="12" y="5" width="2" height="1"/>
  <rect class="d" x="14" y="5" width="1" height="1"/>
  <rect class="e" x="15" y="5" width="1" height="1"/>
  <!-- Row 3 -->
  <rect class="e" x="1" y="6" width="1" height="1"/>
  <rect class="b" x="2" y="6" width="1" height="1"/>
  <rect class="d" x="3" y="6" width="1" height="1"/>
  <rect class="g" x="4" y="6" width="2" height="1"/>
  <rect class="e" x="6" y="6" width="1" height="1"/>
  <rect class="e" x="11" y="6" width="1" height="1"/>
  <rect class="g" x="12" y="6" width="2" height="1"/>
  <rect class="d" x="14" y="6" width="1" height="1"/>
  <rect class="b" x="15" y="6" width="1" height="1"/>
  <rect class="e" x="16" y="6" width="1" height="1"/>
  <!-- Row 4 -->
  <rect class="e" x="1" y="7" width="1" height="1"/>
  <rect class="b" x="2" y="7" width="1" height="1"/>
  <rect class="d" x="3" y="7" width="1" height="1"/>
  <rect class="b" x="4" y="7" width="2" height="1"/>
  <rect class="d" x="6" y="7" width="6" height="1"/>
  <rect class="b" x="12" y="7" width="2" height="1"/>
  <rect class="d" x="14" y="7" width="1" height="1"/>
  <rect class="b" x="15" y="7" width="1" height="1"/>
  <rect class="e" x="16" y="7" width="1" height="1"/>
  <!-- Row 5 -->
  <rect class="e" x="1" y="8" width="1" height="1"/>
  <rect class="d" x="2" y="8" width="2" height="1"/>
  <rect class="b" x="4" y="8" width="2" height="1"/>
  <rect class="d" x="6" y="8" width="1" height="1"/>
  <rect class="g" x="7" y="8" width="4" height="1"/>
  <rect class="d" x="11" y="8" width="1" height="1"/>
  <rect class="b" x="12" y="8" width="2" height="1"/>
  <rect class="d" x="14" y="8" width="2" height="1"/>
  <rect class="e" x="16" y="8" width="1" height="1"/>
  <!-- Row 6 -->
  <rect class="e" x="1" y="9" width="1" height="1"/>
  <rect class="d" x="2" y="9" width="4" height="1"/>
  <rect class="d" x="6" y="9" width="1" height="1"/>
  <rect class="b" x="7" y="9" width="4" height="1"/>
  <rect class="d" x="11" y="9" width="5" height="1"/>
  <rect class="e" x="16" y="9" width="1" height="1"/>
  <!-- Row 7 -->
  <rect class="e" x="1" y="10" width="1" height="1"/>
  <rect class="d" x="2" y="10" width="14" height="1"/>
  <rect class="e" x="16" y="10" width="1" height="1"/>
  <!-- Row 8 -->
  <rect class="e" x="1" y="11" width="1" height="1"/>
  <rect class="b" x="2" y="11" width="1" height="1"/>
  <rect class="d" x="3" y="11" width="4" height="1"/>
  <rect class="d" x="11" y="11" width="4" height="1"/>
  <rect class="b" x="15" y="11" width="1" height="1"/>
  <rect class="e" x="16" y="11" width="1" height="1"/>
  <!-- Row 9 -->
  <rect class="e" x="2" y="12" width="1" height="1"/>
  <rect class="d" x="3" y="12" width="4" height="1"/>
  <rect class="d" x="11" y="12" width="4" height="1"/>
  <rect class="e" x="15" y="12" width="1" height="1"/>
  <!-- Row 10 -->
  <rect class="e" x="3" y="13" width="1" height="1"/>
  <rect class="b" x="4" y="13" width="2" height="1"/>
  <rect class="e" x="6" y="13" width="1" height="1"/>
  <rect class="e" x="11" y="13" width="1" height="1"/>
  <rect class="b" x="12" y="13" width="2" height="1"/>
  <rect class="e" x="14" y="13" width="1" height="1"/>
  <!-- Row 11 -->
  <rect class="e" x="4" y="14" width="2" height="1"/>
  <rect class="e" x="12" y="14" width="2" height="1"/>
</svg>
