<svg xmlns="http://www.w3.org/2000/svg" viewBox="0 0 16 16" shape-rendering="crispEdges">
  <rect width="16" height="16" fill="#fff"/>
  <defs>
    <style>
      .d{fill:#2F356B}
      .e{fill:#3C4174}
      .b{fill:#5A7DCC}
      .g{fill:#D8E9DA}
    </style>
  </defs>
  <!-- Row 0 -->
  <rect class="e" x="3" y="2" width="2" height="1"/>
  <rect class="e" x="11" y="2" width="2" height="1"/>
  <!-- Row 1 -->
  <rect class="e" x="2" y="3" width="1" height="1"/>
  <rect class="b" x="3" y="3" width="2" height="1"/>
  <rect class="e" x="5" y="3" width="1" height="1"/>
  <rect class="e" x="10" y="3" width="1" height="1"/>
  <rect class="b" x="11" y="3" width="2" height="1"/>
  <rect class="e" x="13" y="3" width="1" height="1"/>
  <!-- Row 2 -->
  <rect class="e" x="1" y="4" width="1" height="1"/>
  <rect class="d" x="2" y="4" width="1" height="1"/>
  <rect class="g" x="3" y="4" width="2" height="1"/>
  <rect class="e" x="5" y="4" width="1" height="1"/>
  <rect class="e" x="10" y="4" width="1" height="1"/>
  <rect class="g" x="11" y="4" width="2" height="1"/>
  <rect class="d" x="13" y="4" width="1" height="1"/>
  <rect class="e" x="14" y="4" width="1" height="1"/>
  <!-- Row 3 -->
  <rect class="e" x="0" y="5" width="1" height="1"/>
  <rect class="b" x="1" y="5" width="1" height="1"/>
  <rect class="d" x="2" y="5" width="1" height="1"/>
  <rect class="g" x="3" y="5" width="2" height="1"/>
  <rect class="e" x="5" y="5" width="1" height="1"/>
  <rect class="e" x="10" y="5" width="1" height="1"/>
  <rect class="g" x="11" y="5" width="2" height="1"/>
  <rect class="d" x="13" y="5" width="1" height="1"/>
  <rect class="b" x="14" y="5" width="1" height="1"/>
  <rect class="e" x="15" y="5" width="1" height="1"/>
  <!-- Row 4 -->
  <rect class="e" x="0" y="6" width="1" height="1"/>
  <rect class="b" x="1" y="6" width="1" height="1"/>
  <rect class="d" x="2" y="6" width="1" height="1"/>
  <rect class="b" x="3" y="6" width="2" height="1"/>
  <rect class="d" x="5" y="6" width="6" height="1"/>
  <rect class="b" x="11" y="6" width="2" height="1"/>
  <rect class="d" x="13" y="6" width="1" height="1"/>
  <rect class="b" x="14" y="6" width="1" height="1"/>
  <rect class="e" x="15" y="6" width="1" height="1"/>
  <!-- Row 5 -->
  <rect class="e" x="0" y="7" width="1" height="1"/>
  <rect class="d" x="1" y="7" width="2" height="1"/>
  <rect class="b" x="3" y="7" width="2" height="1"/>
  <rect class="d" x="5" y="7" width="1" height="1"/>
  <rect class="g" x="6" y="7" width="4" height="1"/>
  <rect class="d" x="10" y="7" width="1" height="1"/>
  <rect class="b" x="11" y="7" width="2" height="1"/>
  <rect class="d" x="13" y="7" width="2" height="1"/>
  <rect class="e" x="15" y="7" width="1" height="1"/>
  <!-- Row 6 -->
  <rect class="e" x="0" y="8" width="1" height="1"/>
  <rect class="d" x="1" y="8" width="4" height="1"/>
  <rect class="d" x="5" y="8" width="1" height="1"/>
  <rect class="b" x="6" y="8" width="4" height="1"/>
  <rect class="d" x="10" y="8" width="5" height="1"/>
  <rect class="e" x="15" y="8" width="1" height="1"/>
  <!-- Row 7 -->
  <rect class="e" x="0" y="9" width="1" height="1"/>
  <rect class="d" x="1" y="9" width="14" height="1"/>
  <rect class="e" x="15" y="9" width="1" height="1"/>
  <!-- Row 8 -->
  <rect class="e" x="0" y="10" width="1" height="1"/>
  <rect class="b" x="1" y="10" width="1" height="1"/>
  <rect class="d" x="2" y="10" width="4" height="1"/>
  <rect class="d" x="10" y="10" width="4" height="1"/>
  <rect class="b" x="14" y="10" width="1" height="1"/>
  <rect class="e" x="15" y="10" width="1" height="1"/>
  <!-- Row 9 -->
  <rect class="e" x="1" y="11" width="1" height="1"/>
  <rect class="d" x="2" y="11" width="4" height="1"/>
  <rect class="d" x="10" y="11" width="4" height="1"/>
  <rect class="e" x="14" y="11" width="1" height="1"/>
  <!-- Row 10 -->
  <rect class="e" x="2" y="12" width="1" height="1"/>
  <rect class="b" x="3" y="12" width="2" height="1"/>
  <rect class="e" x="5" y="12" width="1" height="1"/>
  <rect class="e" x="10" y="12" width="1" height="1"/>
  <rect class="b" x="11" y="12" width="2" height="1"/>
  <rect class="e" x="13" y="12" width="1" height="1"/>
  <!-- Row 11 -->
  <rect class="e" x="3" y="13" width="2" height="1"/>
  <rect class="e" x="11" y="13" width="2" height="1"/>
</svg>
